<mxfile host="app.diagrams.net" modified="2022-08-22T10:26:10.101Z" agent="5.0 (Windows NT 10.0; Win64; x64) AppleWebKit/537.36 (KHTML, like Gecko) Chrome/104.0.0.0 Safari/537.36" etag="ihtJ8skfN5P0JpgpCMhX" version="20.2.5" type="github">
  <diagram id="Uyh7Rs5gRNJOgRbK95mi" name="Sayfa -1">
    <mxGraphModel dx="1038" dy="547" grid="1" gridSize="10" guides="1" tooltips="1" connect="1" arrows="1" fold="1" page="1" pageScale="1" pageWidth="827" pageHeight="1169" math="0" shadow="0">
      <root>
        <mxCell id="0" />
        <mxCell id="1" parent="0" />
        <mxCell id="iJdCtciQm-XHfZu3X4iZ-10" style="edgeStyle=orthogonalEdgeStyle;rounded=0;orthogonalLoop=1;jettySize=auto;html=1;entryX=1;entryY=0.5;entryDx=0;entryDy=0;endArrow=block;endFill=0;" edge="1" parent="1" source="iJdCtciQm-XHfZu3X4iZ-2" target="iJdCtciQm-XHfZu3X4iZ-7">
          <mxGeometry relative="1" as="geometry" />
        </mxCell>
        <mxCell id="iJdCtciQm-XHfZu3X4iZ-20" style="edgeStyle=orthogonalEdgeStyle;rounded=0;orthogonalLoop=1;jettySize=auto;html=1;exitX=0.5;exitY=1;exitDx=0;exitDy=0;entryX=0.5;entryY=0;entryDx=0;entryDy=0;endArrow=none;endFill=0;" edge="1" parent="1" source="iJdCtciQm-XHfZu3X4iZ-2" target="iJdCtciQm-XHfZu3X4iZ-15">
          <mxGeometry relative="1" as="geometry" />
        </mxCell>
        <mxCell id="iJdCtciQm-XHfZu3X4iZ-2" value="Airlane Companys" style="swimlane;fontStyle=1;align=center;verticalAlign=top;childLayout=stackLayout;horizontal=1;startSize=26;horizontalStack=0;resizeParent=1;resizeParentMax=0;resizeLast=0;collapsible=1;marginBottom=0;" vertex="1" parent="1">
          <mxGeometry x="390" y="120" width="160" height="78" as="geometry" />
        </mxCell>
        <mxCell id="iJdCtciQm-XHfZu3X4iZ-3" value="id : int&#xa;name : String" style="text;strokeColor=none;fillColor=none;align=left;verticalAlign=top;spacingLeft=4;spacingRight=4;overflow=hidden;rotatable=0;points=[[0,0.5],[1,0.5]];portConstraint=eastwest;" vertex="1" parent="iJdCtciQm-XHfZu3X4iZ-2">
          <mxGeometry y="26" width="160" height="44" as="geometry" />
        </mxCell>
        <mxCell id="iJdCtciQm-XHfZu3X4iZ-4" value="" style="line;strokeWidth=1;fillColor=none;align=left;verticalAlign=middle;spacingTop=-1;spacingLeft=3;spacingRight=3;rotatable=0;labelPosition=right;points=[];portConstraint=eastwest;" vertex="1" parent="iJdCtciQm-XHfZu3X4iZ-2">
          <mxGeometry y="70" width="160" height="8" as="geometry" />
        </mxCell>
        <mxCell id="iJdCtciQm-XHfZu3X4iZ-6" value="Airport" style="swimlane;fontStyle=1;align=center;verticalAlign=top;childLayout=stackLayout;horizontal=1;startSize=26;horizontalStack=0;resizeParent=1;resizeParentMax=0;resizeLast=0;collapsible=1;marginBottom=0;" vertex="1" parent="1">
          <mxGeometry x="60" y="74" width="160" height="88" as="geometry" />
        </mxCell>
        <mxCell id="iJdCtciQm-XHfZu3X4iZ-7" value="Id : int&#xa;name: String&#xa;adress: String" style="text;strokeColor=none;fillColor=none;align=left;verticalAlign=top;spacingLeft=4;spacingRight=4;overflow=hidden;rotatable=0;points=[[0,0.5],[1,0.5]];portConstraint=eastwest;" vertex="1" parent="iJdCtciQm-XHfZu3X4iZ-6">
          <mxGeometry y="26" width="160" height="54" as="geometry" />
        </mxCell>
        <mxCell id="iJdCtciQm-XHfZu3X4iZ-8" value="" style="line;strokeWidth=1;fillColor=none;align=left;verticalAlign=middle;spacingTop=-1;spacingLeft=3;spacingRight=3;rotatable=0;labelPosition=right;points=[];portConstraint=eastwest;" vertex="1" parent="iJdCtciQm-XHfZu3X4iZ-6">
          <mxGeometry y="80" width="160" height="8" as="geometry" />
        </mxCell>
        <mxCell id="iJdCtciQm-XHfZu3X4iZ-13" value="1..*" style="text;align=center;fontStyle=1;verticalAlign=middle;spacingLeft=3;spacingRight=3;strokeColor=none;rotatable=0;points=[[0,0.5],[1,0.5]];portConstraint=eastwest;" vertex="1" parent="1">
          <mxGeometry x="334" y="136" width="80" height="26" as="geometry" />
        </mxCell>
        <mxCell id="iJdCtciQm-XHfZu3X4iZ-14" value="1" style="text;align=center;fontStyle=1;verticalAlign=middle;spacingLeft=3;spacingRight=3;strokeColor=none;rotatable=0;points=[[0,0.5],[1,0.5]];portConstraint=eastwest;" vertex="1" parent="1">
          <mxGeometry x="200" y="105" width="80" height="26" as="geometry" />
        </mxCell>
        <mxCell id="iJdCtciQm-XHfZu3X4iZ-80" style="edgeStyle=orthogonalEdgeStyle;rounded=0;orthogonalLoop=1;jettySize=auto;html=1;entryX=0.227;entryY=1.012;entryDx=0;entryDy=0;entryPerimeter=0;startArrow=none;startFill=0;endArrow=none;endFill=0;" edge="1" parent="1" source="iJdCtciQm-XHfZu3X4iZ-15" target="iJdCtciQm-XHfZu3X4iZ-36">
          <mxGeometry relative="1" as="geometry" />
        </mxCell>
        <mxCell id="iJdCtciQm-XHfZu3X4iZ-15" value="Planes" style="swimlane;fontStyle=1;align=center;verticalAlign=top;childLayout=stackLayout;horizontal=1;startSize=26;horizontalStack=0;resizeParent=1;resizeParentMax=0;resizeLast=0;collapsible=1;marginBottom=0;" vertex="1" parent="1">
          <mxGeometry x="240" y="290" width="160" height="108" as="geometry" />
        </mxCell>
        <mxCell id="iJdCtciQm-XHfZu3X4iZ-16" value="planeType: String&#xa;id : int&#xa;planeStatus: String" style="text;strokeColor=none;fillColor=none;align=left;verticalAlign=top;spacingLeft=4;spacingRight=4;overflow=hidden;rotatable=0;points=[[0,0.5],[1,0.5]];portConstraint=eastwest;" vertex="1" parent="iJdCtciQm-XHfZu3X4iZ-15">
          <mxGeometry y="26" width="160" height="74" as="geometry" />
        </mxCell>
        <mxCell id="iJdCtciQm-XHfZu3X4iZ-17" value="" style="line;strokeWidth=1;fillColor=none;align=left;verticalAlign=middle;spacingTop=-1;spacingLeft=3;spacingRight=3;rotatable=0;labelPosition=right;points=[];portConstraint=eastwest;" vertex="1" parent="iJdCtciQm-XHfZu3X4iZ-15">
          <mxGeometry y="100" width="160" height="8" as="geometry" />
        </mxCell>
        <mxCell id="iJdCtciQm-XHfZu3X4iZ-21" value="1" style="text;align=center;fontStyle=1;verticalAlign=middle;spacingLeft=3;spacingRight=3;strokeColor=none;rotatable=0;points=[[0,0.5],[1,0.5]];portConstraint=eastwest;" vertex="1" parent="1">
          <mxGeometry x="440" y="198" width="80" height="26" as="geometry" />
        </mxCell>
        <mxCell id="iJdCtciQm-XHfZu3X4iZ-22" value="1..*" style="text;align=center;fontStyle=1;verticalAlign=middle;spacingLeft=3;spacingRight=3;strokeColor=none;rotatable=0;points=[[0,0.5],[1,0.5]];portConstraint=eastwest;" vertex="1" parent="1">
          <mxGeometry x="300" y="264" width="80" height="26" as="geometry" />
        </mxCell>
        <mxCell id="iJdCtciQm-XHfZu3X4iZ-30" style="edgeStyle=orthogonalEdgeStyle;rounded=0;orthogonalLoop=1;jettySize=auto;html=1;entryX=1;entryY=0.5;entryDx=0;entryDy=0;endArrow=none;endFill=0;" edge="1" parent="1" source="iJdCtciQm-XHfZu3X4iZ-23" target="iJdCtciQm-XHfZu3X4iZ-3">
          <mxGeometry relative="1" as="geometry" />
        </mxCell>
        <mxCell id="iJdCtciQm-XHfZu3X4iZ-23" value="Flight" style="swimlane;fontStyle=1;align=center;verticalAlign=top;childLayout=stackLayout;horizontal=1;startSize=26;horizontalStack=0;resizeParent=1;resizeParentMax=0;resizeLast=0;collapsible=1;marginBottom=0;" vertex="1" parent="1">
          <mxGeometry x="570" y="290" width="160" height="138" as="geometry" />
        </mxCell>
        <mxCell id="iJdCtciQm-XHfZu3X4iZ-24" value="id : intÂ &#xa;companyName : String&#xa;departureTime: float&#xa;arrivalTime: float&#xa;usedAirport : String&#xa;" style="text;strokeColor=none;fillColor=none;align=left;verticalAlign=top;spacingLeft=4;spacingRight=4;overflow=hidden;rotatable=0;points=[[0,0.5],[1,0.5]];portConstraint=eastwest;" vertex="1" parent="iJdCtciQm-XHfZu3X4iZ-23">
          <mxGeometry y="26" width="160" height="104" as="geometry" />
        </mxCell>
        <mxCell id="iJdCtciQm-XHfZu3X4iZ-25" value="" style="line;strokeWidth=1;fillColor=none;align=left;verticalAlign=middle;spacingTop=-1;spacingLeft=3;spacingRight=3;rotatable=0;labelPosition=right;points=[];portConstraint=eastwest;" vertex="1" parent="iJdCtciQm-XHfZu3X4iZ-23">
          <mxGeometry y="130" width="160" height="8" as="geometry" />
        </mxCell>
        <mxCell id="iJdCtciQm-XHfZu3X4iZ-27" style="edgeStyle=orthogonalEdgeStyle;rounded=0;orthogonalLoop=1;jettySize=auto;html=1;entryX=1;entryY=0.5;entryDx=0;entryDy=0;endArrow=none;endFill=0;" edge="1" parent="1" source="iJdCtciQm-XHfZu3X4iZ-24" target="iJdCtciQm-XHfZu3X4iZ-16">
          <mxGeometry relative="1" as="geometry" />
        </mxCell>
        <mxCell id="iJdCtciQm-XHfZu3X4iZ-28" value="1..*" style="text;align=center;fontStyle=1;verticalAlign=middle;spacingLeft=3;spacingRight=3;strokeColor=none;rotatable=0;points=[[0,0.5],[1,0.5]];portConstraint=eastwest;" vertex="1" parent="1">
          <mxGeometry x="374" y="331" width="80" height="26" as="geometry" />
        </mxCell>
        <mxCell id="iJdCtciQm-XHfZu3X4iZ-29" value="1" style="text;align=center;fontStyle=1;verticalAlign=middle;spacingLeft=3;spacingRight=3;strokeColor=none;rotatable=0;points=[[0,0.5],[1,0.5]];portConstraint=eastwest;" vertex="1" parent="1">
          <mxGeometry x="500" y="340" width="80" height="26" as="geometry" />
        </mxCell>
        <mxCell id="iJdCtciQm-XHfZu3X4iZ-31" value="1" style="text;align=center;fontStyle=1;verticalAlign=middle;spacingLeft=3;spacingRight=3;strokeColor=none;rotatable=0;points=[[0,0.5],[1,0.5]];portConstraint=eastwest;" vertex="1" parent="1">
          <mxGeometry x="520" y="146" width="80" height="26" as="geometry" />
        </mxCell>
        <mxCell id="iJdCtciQm-XHfZu3X4iZ-32" value="1..*" style="text;align=center;fontStyle=1;verticalAlign=middle;spacingLeft=3;spacingRight=3;strokeColor=none;rotatable=0;points=[[0,0.5],[1,0.5]];portConstraint=eastwest;" vertex="1" parent="1">
          <mxGeometry x="620" y="264" width="80" height="26" as="geometry" />
        </mxCell>
        <mxCell id="iJdCtciQm-XHfZu3X4iZ-51" style="edgeStyle=orthogonalEdgeStyle;rounded=0;orthogonalLoop=1;jettySize=auto;html=1;entryX=0.5;entryY=0;entryDx=0;entryDy=0;startArrow=none;startFill=0;endArrow=none;endFill=0;" edge="1" parent="1" target="iJdCtciQm-XHfZu3X4iZ-37">
          <mxGeometry relative="1" as="geometry">
            <mxPoint x="880" y="560" as="sourcePoint" />
            <Array as="points">
              <mxPoint x="880" y="570" />
              <mxPoint x="880" y="570" />
            </Array>
          </mxGeometry>
        </mxCell>
        <mxCell id="iJdCtciQm-XHfZu3X4iZ-61" style="edgeStyle=orthogonalEdgeStyle;rounded=0;orthogonalLoop=1;jettySize=auto;html=1;entryX=0.308;entryY=-0.036;entryDx=0;entryDy=0;entryPerimeter=0;startArrow=block;startFill=0;endArrow=none;endFill=0;" edge="1" parent="1" source="iJdCtciQm-XHfZu3X4iZ-33" target="iJdCtciQm-XHfZu3X4iZ-48">
          <mxGeometry relative="1" as="geometry" />
        </mxCell>
        <mxCell id="iJdCtciQm-XHfZu3X4iZ-64" style="edgeStyle=orthogonalEdgeStyle;rounded=0;orthogonalLoop=1;jettySize=auto;html=1;startArrow=none;startFill=0;endArrow=none;endFill=0;" edge="1" parent="1" source="iJdCtciQm-XHfZu3X4iZ-33" target="iJdCtciQm-XHfZu3X4iZ-24">
          <mxGeometry relative="1" as="geometry" />
        </mxCell>
        <mxCell id="iJdCtciQm-XHfZu3X4iZ-77" style="edgeStyle=orthogonalEdgeStyle;rounded=0;orthogonalLoop=1;jettySize=auto;html=1;entryX=1;entryY=0.25;entryDx=0;entryDy=0;startArrow=none;startFill=0;endArrow=none;endFill=0;" edge="1" parent="1" source="iJdCtciQm-XHfZu3X4iZ-33" target="iJdCtciQm-XHfZu3X4iZ-2">
          <mxGeometry relative="1" as="geometry">
            <Array as="points">
              <mxPoint x="880" y="140" />
            </Array>
          </mxGeometry>
        </mxCell>
        <mxCell id="iJdCtciQm-XHfZu3X4iZ-33" value="Pilot" style="swimlane;fontStyle=1;align=center;verticalAlign=top;childLayout=stackLayout;horizontal=1;startSize=26;horizontalStack=0;resizeParent=1;resizeParentMax=0;resizeLast=0;collapsible=1;marginBottom=0;" vertex="1" parent="1">
          <mxGeometry x="800" y="357" width="160" height="140" as="geometry" />
        </mxCell>
        <mxCell id="iJdCtciQm-XHfZu3X4iZ-34" value="name :String&#xa;id :int&#xa;title : String&#xa;experienceLvl : String" style="text;strokeColor=none;fillColor=none;align=left;verticalAlign=top;spacingLeft=4;spacingRight=4;overflow=hidden;rotatable=0;points=[[0,0.5],[1,0.5]];portConstraint=eastwest;" vertex="1" parent="iJdCtciQm-XHfZu3X4iZ-33">
          <mxGeometry y="26" width="160" height="74" as="geometry" />
        </mxCell>
        <mxCell id="iJdCtciQm-XHfZu3X4iZ-35" value="" style="line;strokeWidth=1;fillColor=none;align=left;verticalAlign=middle;spacingTop=-1;spacingLeft=3;spacingRight=3;rotatable=0;labelPosition=right;points=[];portConstraint=eastwest;" vertex="1" parent="iJdCtciQm-XHfZu3X4iZ-33">
          <mxGeometry y="100" width="160" height="8" as="geometry" />
        </mxCell>
        <mxCell id="iJdCtciQm-XHfZu3X4iZ-36" value="usePlane()" style="text;strokeColor=none;fillColor=none;align=left;verticalAlign=top;spacingLeft=4;spacingRight=4;overflow=hidden;rotatable=0;points=[[0,0.5],[1,0.5]];portConstraint=eastwest;" vertex="1" parent="iJdCtciQm-XHfZu3X4iZ-33">
          <mxGeometry y="108" width="160" height="32" as="geometry" />
        </mxCell>
        <mxCell id="iJdCtciQm-XHfZu3X4iZ-37" value="CoPilot" style="swimlane;fontStyle=1;align=center;verticalAlign=top;childLayout=stackLayout;horizontal=1;startSize=26;horizontalStack=0;resizeParent=1;resizeParentMax=0;resizeLast=0;collapsible=1;marginBottom=0;" vertex="1" parent="1">
          <mxGeometry x="800" y="620" width="160" height="34" as="geometry" />
        </mxCell>
        <mxCell id="iJdCtciQm-XHfZu3X4iZ-39" value="" style="line;strokeWidth=1;fillColor=none;align=left;verticalAlign=middle;spacingTop=-1;spacingLeft=3;spacingRight=3;rotatable=0;labelPosition=right;points=[];portConstraint=eastwest;" vertex="1" parent="iJdCtciQm-XHfZu3X4iZ-37">
          <mxGeometry y="26" width="160" height="8" as="geometry" />
        </mxCell>
        <mxCell id="iJdCtciQm-XHfZu3X4iZ-48" value="Extends" style="text;strokeColor=none;fillColor=none;align=left;verticalAlign=top;spacingLeft=4;spacingRight=4;overflow=hidden;rotatable=0;points=[[0,0.5],[1,0.5]];portConstraint=eastwest;" vertex="1" parent="1">
          <mxGeometry x="850" y="530" width="100" height="26" as="geometry" />
        </mxCell>
        <mxCell id="iJdCtciQm-XHfZu3X4iZ-75" value="1" style="text;align=center;fontStyle=1;verticalAlign=middle;spacingLeft=3;spacingRight=3;strokeColor=none;rotatable=0;points=[[0,0.5],[1,0.5]];portConstraint=eastwest;" vertex="1" parent="1">
          <mxGeometry x="750" y="402" width="80" height="26" as="geometry" />
        </mxCell>
        <mxCell id="iJdCtciQm-XHfZu3X4iZ-76" value="1" style="text;align=center;fontStyle=1;verticalAlign=middle;spacingLeft=3;spacingRight=3;strokeColor=none;rotatable=0;points=[[0,0.5],[1,0.5]];portConstraint=eastwest;" vertex="1" parent="1">
          <mxGeometry x="700" y="340" width="80" height="26" as="geometry" />
        </mxCell>
        <mxCell id="iJdCtciQm-XHfZu3X4iZ-78" value="1" style="text;align=center;fontStyle=1;verticalAlign=middle;spacingLeft=3;spacingRight=3;strokeColor=none;rotatable=0;points=[[0,0.5],[1,0.5]];portConstraint=eastwest;" vertex="1" parent="1">
          <mxGeometry x="520" y="110" width="80" height="26" as="geometry" />
        </mxCell>
        <mxCell id="iJdCtciQm-XHfZu3X4iZ-79" value="1..*" style="text;align=center;fontStyle=1;verticalAlign=middle;spacingLeft=3;spacingRight=3;strokeColor=none;rotatable=0;points=[[0,0.5],[1,0.5]];portConstraint=eastwest;" vertex="1" parent="1">
          <mxGeometry x="850" y="331" width="80" height="26" as="geometry" />
        </mxCell>
        <mxCell id="iJdCtciQm-XHfZu3X4iZ-81" value="1..*" style="text;align=center;fontStyle=1;verticalAlign=middle;spacingLeft=3;spacingRight=3;strokeColor=none;rotatable=0;points=[[0,0.5],[1,0.5]];portConstraint=eastwest;" vertex="1" parent="1">
          <mxGeometry x="770" y="497" width="80" height="26" as="geometry" />
        </mxCell>
        <mxCell id="iJdCtciQm-XHfZu3X4iZ-82" value="1" style="text;align=center;fontStyle=1;verticalAlign=middle;spacingLeft=3;spacingRight=3;strokeColor=none;rotatable=0;points=[[0,0.5],[1,0.5]];portConstraint=eastwest;" vertex="1" parent="1">
          <mxGeometry x="270" y="398" width="80" height="26" as="geometry" />
        </mxCell>
      </root>
    </mxGraphModel>
  </diagram>
</mxfile>
